Coordinates
version=1
nRows=65
nColumns=12
inDegrees=yes

Units are S.I. units (second, meters, Newtons, ...)
Angles are in degrees

endheader
time	SC_y	SC_z	SC_x	AC_y	AC_z	AC_x	GH_y	GH_z	GH_yy	EL_x	PS_y
       0.0              -42.65          14.96           29.4          40.61         -14.84         -6.119          36.28          12.98         -62.31          64.57          75.05
   0.03614              -42.65          14.96          29.39          40.62         -14.84         -6.117          36.26          12.98         -62.31          64.59          75.05
   0.07228              -42.64          14.96          29.39          40.62         -14.83         -6.115          36.24          12.98          -62.3           64.6          75.05
    0.1084              -42.64          14.95          29.39          40.62         -14.83         -6.113          36.21          12.97         -62.29          64.61          75.05
    0.1446              -42.64          14.95          29.38          40.62         -14.83         -6.111          36.18          12.97         -62.28          64.62          75.04
    0.1807              -42.63          14.95          29.38          40.62         -14.83         -6.109          36.16          12.96         -62.27          64.64          75.04
    0.2168              -42.63          14.94          29.37          40.62         -14.83         -6.106          36.12          12.96         -62.26          64.65          75.04
     0.253              -42.63          14.94          29.37          40.62         -14.82         -6.104          36.09          12.95         -62.25          64.67          75.04
    0.2891              -42.62          14.94          29.36          40.62         -14.82         -6.101          36.06          12.95         -62.24          64.68          75.04
    0.3253              -42.62          14.93          29.36          40.63         -14.82         -6.098          36.02          12.94         -62.23           64.7          75.04
    0.3614              -42.61          14.93          29.35          40.63         -14.81         -6.094          35.98          12.93         -62.22          64.72          75.04
    0.3975              -42.61          14.92          29.35          40.63         -14.81         -6.091          35.93          12.93          -62.2          64.74          75.03
    0.4337               -42.6          14.92          29.34          40.63         -14.81         -6.087          35.89          12.92         -62.19          64.77          75.03
    0.4698              -42.59          14.91          29.33          40.63          -14.8         -6.083          35.83          12.91         -62.17          64.79          75.03
     0.506              -42.59          14.91          29.33          40.64          -14.8         -6.078          35.78           12.9         -62.15          64.82          75.03
    0.5421              -42.58           14.9          29.32          40.64         -14.79         -6.074          35.72          12.89         -62.14          64.85          75.03
    0.5782              -42.57          14.89          29.31          40.64         -14.79         -6.068          35.65          12.88         -62.12          64.88          75.02
    0.6144              -42.56          14.89           29.3          40.65         -14.78         -6.062          35.58          12.87         -62.09          64.91          75.02
    0.6505              -42.55          14.88          29.29          40.65         -14.78         -6.056          35.51          12.86         -62.07          64.95          75.02
    0.6867              -42.54          14.87          29.28          40.65         -14.77         -6.049          35.42          12.84         -62.04          64.99          75.02
    0.7228              -42.53          14.86          29.26          40.66         -14.76         -6.042          35.33          12.83         -62.01          65.04          75.01
    0.7589              -42.51          14.85          29.25          40.66         -14.76         -6.033          35.22          12.81         -61.98          65.09          75.01
    0.7951               -42.5          14.83          29.23          40.67         -14.75         -6.024          35.11          12.79         -61.95          65.14           75.0
    0.8312              -42.48          14.82          29.22          40.67         -14.74         -6.014          34.99          12.77         -61.91           65.2           75.0
    0.8674              -42.47           14.8           29.2          40.68         -14.73         -6.003          34.85          12.75         -61.86          65.27          74.99
    0.9035              -42.45          14.79          29.17          40.69         -14.72          -5.99          34.69          12.73         -61.81          65.35          74.99
    0.9396              -42.42          14.77          29.15          40.69          -14.7         -5.976          34.51           12.7         -61.76          65.43          74.98
    0.9758               -42.4          14.75          29.12           40.7         -14.69          -5.96          34.32          12.67          -61.7          65.53          74.97
     1.012              -42.37          14.72          29.09          40.71         -14.67         -5.942           34.1          12.63         -61.63          65.64          74.96
     1.048              -42.34          14.69          29.06          40.72         -14.65         -5.922          33.84          12.59         -61.55          65.76          74.95
     1.084               -42.3          14.66          29.02          40.74         -14.63         -5.898          33.56          12.54         -61.46           65.9          74.94
      1.12              -42.26          14.62          28.97          40.75          -14.6         -5.872          33.23          12.49         -61.36          66.06          74.93
     1.156              -42.21          14.58          28.92          40.77         -14.57         -5.841          32.85          12.43         -61.24          66.24          74.92
     1.193              -42.15          14.53          28.86          40.79         -14.54         -5.805           32.4          12.36          -61.1          66.46           74.9
     1.229              -42.09          14.48          28.79          40.81          -14.5         -5.763          31.88          12.28         -60.94          66.71          74.88
     1.265              -42.01          14.41           28.7          40.84         -14.45         -5.714          31.27          12.18         -60.75           67.0          74.86
     1.301              -41.91          14.33           28.6          40.87          -14.4         -5.655          30.55          12.06         -60.52          67.36          74.83
     1.337               -41.8          14.23          28.48          40.91         -14.33         -5.584          29.68          11.92         -60.25          67.78          74.79
     1.373              -41.67          14.12          28.34          40.96         -14.25         -5.499          28.62          11.75         -59.92          68.29          74.75
     1.409               -41.5          13.97          28.16          41.02         -14.15         -5.395          27.34          11.54         -59.52          68.91           74.7
     1.446               -41.3           13.8          27.94          41.09         -14.03         -5.266          25.75          11.29         -59.02          69.68          74.64
     1.482              -41.04          13.58          27.66          41.18         -13.88         -5.106          23.77          10.97          -58.4          70.64          74.57
     1.518              -40.72           13.3          27.32           41.3         -13.69         -4.904          21.28          10.57         -57.63          71.85          74.47
     1.554              -40.32          12.95          26.88          41.44         -13.45         -4.648          18.11          10.06         -56.64          73.39          74.35
      1.59               -39.8          12.51          26.32          41.62         -13.14         -4.319          14.05          9.406         -55.37          75.36          74.19
     1.626              -39.13          11.93           25.6          41.86         -12.74         -3.898          8.847          8.568         -53.74          77.88          73.99
     1.662              -38.27           11.2          24.68          42.16         -12.23         -3.359          2.196          7.498         -51.66          81.11          73.74
     1.699               -37.2          10.27          23.52          42.54         -11.59         -2.682         -6.165          6.153         -49.05          85.16          73.42
     1.735              -35.89          9.146          22.11          43.01         -10.81         -1.857         -16.35          4.513         -45.87          90.11          73.03
     1.771              -34.37           7.84          20.48          43.54         -9.908        -0.9004         -28.17          2.613         -42.18          95.84          72.57
     1.807              -32.73          6.427          18.71          44.13         -8.929         0.1352         -40.96         0.5552         -38.19          102.0          72.08
     1.843              -31.09          5.014          16.94          44.71         -7.951          1.171         -53.74         -1.503         -34.19          108.2          71.59
     1.879              -29.57          3.708          15.31          45.24         -7.047          2.127         -65.56         -3.403          -30.5          114.0          71.14
     1.915              -28.26          2.582           13.9          45.71         -6.268          2.952         -75.75         -5.043         -27.32          118.9          70.75
     1.952              -27.19          1.658          12.74          46.09         -5.628          3.629         -84.11         -6.388         -24.71          123.0          70.43
     1.988              -26.34         0.9234          11.82          46.39          -5.12          4.168         -90.76         -7.458         -22.63          126.2          70.17
     2.024              -25.67         0.3481           11.1          46.63         -4.721          4.589         -95.96         -8.296          -21.0          128.7          69.97
      2.06              -25.15        -0.1002          10.54          46.81         -4.411          4.918         -100.0         -8.949         -19.74          130.7          69.81
     2.096              -24.74        -0.4505           10.1          46.95         -4.169          5.175         -103.2         -9.459         -18.75          132.2          69.69
     2.132              -24.42         -0.726          9.755          47.07         -3.978          5.376         -105.7          -9.86         -17.97          133.4           69.6
     2.168              -24.17        -0.9447          9.481          47.16         -3.827          5.537         -107.7         -10.18         -17.35          134.4          69.52
     2.205              -23.96          -1.12          9.262          47.23         -3.705          5.665         -109.2         -10.43         -16.85          135.2          69.46
     2.241               -23.8         -1.262          9.084          47.29         -3.607          5.769         -110.5         -10.64         -16.45          135.8          69.41
     2.277              -23.66         -1.379          8.938          47.34         -3.526          5.855         -111.6         -10.81         -16.12          136.3          69.37
     2.313              -23.55         -1.475          8.818          47.38          -3.46          5.925         -112.5         -10.95         -15.85          136.7          69.34
